<svg width="250" height="300" viewBox="0 0 250 300" fill="none"
    xmlns="http://www.w3.org/2000/svg">
    <path d="M249.553 155.045C249.553 231.132 193.667 311.145 101.869 297.85C23.1087 286.444 0 233.043 0 155.045C0 77.0472 37.9033 22.9997 101.869 3.39574C145.771 -10.0594 195.25 18.0196 223.491 60.2924C243.334 89.9939 249.553 129.241 249.553 155.045Z" fill="#299C27"/>
    <path d="M233.331 155.953C233.331 188.831 221.397 222.518 199.765 246.498C178.195 270.41 146.966 284.709 108.025 278.998C74.4294 274.07 53.0409 260.155 39.9436 239.33C26.7584 218.365 21.756 190.058 21.756 155.953C21.756 88.3045 54.1061 41.9023 108.404 25.0484C144.994 13.6907 186.925 37.359 211.126 74.0467C227.977 99.592 233.331 133.54 233.331 155.953Z" fill="#93F091" stroke="#57B956" stroke-width="5"/>
    <mask id="path-3-inside-1_5_2" fill="white">
        <ellipse cx="93.79" cy="83.2201" rx="20.5287" ry="19.7167"/>
    </mask>
    <ellipse cx="93.79" cy="83.2201" rx="20.5287" ry="19.7167" fill="#322F2F"/>
    <path d="M94.3187 83.2201C94.3187 83.1701 94.3244 83.1024 94.3407 83.0261C94.3566 82.9512 94.3789 82.8859 94.4017 82.834C94.4467 82.7318 94.4802 82.7102 94.452 82.7373C94.4234 82.7648 94.3586 82.8152 94.2534 82.8579C94.1597 82.896 94.0134 82.9367 93.79 82.9367V122.937C115.405 122.937 134.319 105.908 134.319 83.2201H94.3187ZM93.79 82.9367C93.5666 82.9367 93.4204 82.896 93.3266 82.8579C93.2215 82.8152 93.1566 82.7648 93.128 82.7373C93.0998 82.7102 93.1333 82.7318 93.1783 82.834C93.2012 82.8859 93.2234 82.9512 93.2394 83.0261C93.2556 83.1024 93.2614 83.1701 93.2614 83.2201H53.2614C53.2614 105.908 72.1751 122.937 93.79 122.937V82.9367ZM93.2614 83.2201C93.2614 83.27 93.2556 83.3378 93.2394 83.4141C93.2234 83.489 93.2012 83.5542 93.1783 83.6061C93.1333 83.7083 93.0998 83.7299 93.128 83.7028C93.1566 83.6754 93.2215 83.625 93.3266 83.5823C93.4204 83.5442 93.5666 83.5034 93.79 83.5034V43.5034C72.1751 43.5034 53.2614 60.5321 53.2614 83.2201H93.2614ZM93.79 83.5034C94.0134 83.5034 94.1597 83.5442 94.2534 83.5823C94.3586 83.625 94.4234 83.6754 94.452 83.7028C94.4802 83.7299 94.4467 83.7083 94.4017 83.6061C94.3789 83.5542 94.3566 83.489 94.3407 83.4141C94.3244 83.3378 94.3187 83.27 94.3187 83.2201H134.319C134.319 60.5321 115.405 43.5034 93.79 43.5034V83.5034Z" fill="black" mask="url(#path-3-inside-1_5_2)"/>
    <mask id="path-5-inside-2_5_2" fill="white">
        <ellipse cx="161.076" cy="83.2201" rx="20.5287" ry="19.7167"/>
    </mask>
    <ellipse cx="161.076" cy="83.2201" rx="20.5287" ry="19.7167" fill="#322F2F"/>
    <path d="M161.604 83.2201C161.604 83.1701 161.61 83.1024 161.626 83.0261C161.642 82.9512 161.665 82.8859 161.687 82.834C161.732 82.7318 161.766 82.7102 161.738 82.7373C161.709 82.7648 161.644 82.8152 161.539 82.8579C161.445 82.896 161.299 82.9367 161.076 82.9367V122.937C182.691 122.937 201.604 105.908 201.604 83.2201H161.604ZM161.076 82.9367C160.852 82.9367 160.706 82.896 160.612 82.8579C160.507 82.8152 160.442 82.7648 160.414 82.7373C160.385 82.7102 160.419 82.7318 160.464 82.834C160.487 82.8859 160.509 82.9512 160.525 83.0261C160.541 83.1024 160.547 83.1701 160.547 83.2201H120.547C120.547 105.908 139.461 122.937 161.076 122.937V82.9367ZM160.547 83.2201C160.547 83.27 160.541 83.3378 160.525 83.4141C160.509 83.489 160.487 83.5542 160.464 83.6061C160.419 83.7083 160.385 83.7299 160.414 83.7028C160.442 83.6754 160.507 83.625 160.612 83.5823C160.706 83.5442 160.852 83.5034 161.076 83.5034V43.5034C139.461 43.5034 120.547 60.5321 120.547 83.2201H160.547ZM161.076 83.5034C161.299 83.5034 161.445 83.5442 161.539 83.5823C161.644 83.625 161.709 83.6754 161.738 83.7028C161.766 83.7299 161.732 83.7083 161.687 83.6061C161.665 83.5542 161.642 83.489 161.626 83.4141C161.61 83.3378 161.604 83.27 161.604 83.2201H201.604C201.604 60.5321 182.691 43.5034 161.076 43.5034V83.5034Z" fill="black" mask="url(#path-5-inside-2_5_2)"/>
    <path d="M107.457 119.99C107.457 119.99 120.053 126.847 129.259 126.734C138.278 126.624 147.74 119.99 147.74 119.99" stroke="#E74E4E" stroke-width="5"/>
    <path d="M190.235 202.305C190.235 231.075 162.921 255.61 127.617 255.61C92.3137 255.61 65 231.075 65 202.305C65 173.535 92.3137 149 127.617 149C162.921 149 190.235 173.535 190.235 202.305Z" fill="#832E2E"/>
    <path d="M190.235 202.305C190.235 231.075 162.921 255.61 127.617 255.61C92.3137 255.61 65 231.075 65 202.305C65 173.535 92.3137 149 127.617 149C162.921 149 190.235 173.535 190.235 202.305Z" fill="#C07F7F" fill-opacity="0.24"/>
    <path d="M190.235 202.305C190.235 231.075 162.921 255.61 127.617 255.61C92.3137 255.61 65 231.075 65 202.305C65 173.535 92.3137 149 127.617 149C162.921 149 190.235 173.535 190.235 202.305Z" stroke="#9C4F4F" stroke-width="10"/>
    <ellipse cx="161.463" cy="78.5287" rx="8.52133" ry="9.68933" fill="#C4C4C4"/>
    <ellipse cx="168.213" cy="83.3733" rx="8.52133" ry="9.68933" fill="#C4C4C4"/>
    <ellipse cx="92.1853" cy="80.8947" rx="8.52133" ry="9.68933" fill="#C4C4C4"/>
    <ellipse cx="98.9359" cy="85.7393" rx="8.52133" ry="9.68933" fill="#C4C4C4"/>
</svg>
